<svg display="none" xmlns="http://www.w3.org/2000/svg">
    <symbol viewBox="0 0 12 12" id="star">
        <svg width="12" height="12" viewBox="0 0 12 12" xmlns="http://www.w3.org/2000/svg">
            <path fill-rule="evenodd" clip-rule="evenodd" d="M9.4618 11.9997C9.3982 11.9997 9.3358 11.9834 9.277 11.9519L5.99978 10.1462L2.72256 11.9519C2.58936 12.0261 2.42615 12.0135 2.30375 11.9205C2.18135 11.8262 2.12015 11.669 2.14535 11.5118L2.77056 7.68921L0.119741 4.9807C0.0117399 4.87005 -0.0278604 4.70406 0.0201399 4.55317C0.0669402 4.40228 0.190541 4.29163 0.340542 4.26899L4.00536 3.71195L5.64337 0.232625C5.71058 0.0905353 5.84858 0 5.99978 0C6.15218 0 6.29018 0.0905353 6.35738 0.232625L7.99539 3.71195L11.659 4.26899C11.809 4.29163 11.9338 4.40228 11.9806 4.55317C12.0274 4.70406 11.9878 4.87005 11.8798 4.9807L9.229 7.68921L9.8542 11.5118C9.8806 11.669 9.8182 11.8262 9.6958 11.9205C9.6274 11.9733 9.5446 11.9997 9.4618 11.9997Z" />
        </svg>
    </symbol>
    <symbol viewBox="0 0 23 22" id="reset">
        <svg width="23" height="22" viewBox="0 0 23 22" fill="none" xmlns="http://www.w3.org/2000/svg">
            <path d="M11.5023 4.00299C13.1787 3.97611 14.8091 4.5518 16.0968 5.62536C17.3846 6.69892 18.2443 8.19903 18.5196 9.85287C18.7948 11.5067 18.4674 13.2044 17.5967 14.6372C16.7261 16.07 15.3701 17.1427 13.7754 17.6602C12.1807 18.1778 10.4532 18.1058 8.90707 17.4573C7.36097 16.8088 6.09898 15.6269 5.35061 14.1267C4.60224 12.6264 4.4172 10.9073 4.82916 9.28211C5.09033 8.25179 5.58044 7.30259 6.254 6.50048" stroke="black" stroke-width="1.6" stroke-linecap="round"/>
            <path d="M3.61445 6.76329L6.59428 6.21606L7.14152 9.1959" stroke="black" stroke-width="1.6" stroke-linecap="round"/>
        </svg>
    </symbol>
</svg>
